<svg xmlns="http://www.w3.org/2000/svg" viewBox="0 0 128 128" width="128" height="128">
  <!-- Background circle -->
  <circle cx="64" cy="64" r="60" fill="#667eea"/>
  <circle cx="64" cy="64" r="60" fill="url(#gradient)"/>
  
  <defs>
    <linearGradient id="gradient" x1="0%" y1="0%" x2="100%" y2="100%">
      <stop offset="0%" style="stop-color:#667eea;stop-opacity:1" />
      <stop offset="100%" style="stop-color:#764ba2;stop-opacity:1" />
    </linearGradient>
  </defs>
  
  <!-- Hamster body -->
  <ellipse cx="64" cy="75" rx="35" ry="28" fill="#D4A574" stroke="#B8956A" stroke-width="2"/>
  
  <!-- Hamster head -->
  <circle cx="64" cy="50" r="28" fill="#D4A574" stroke="#B8956A" stroke-width="2"/>
  
  <!-- Left ear -->
  <ellipse cx="48" cy="40" rx="8" ry="12" fill="#C99D6A" stroke="#B8956A" stroke-width="1.5"/>
  <ellipse cx="48" cy="40" rx="5" ry="8" fill="#E8B888"/>
  
  <!-- Right ear -->
  <ellipse cx="80" cy="40" rx="8" ry="12" fill="#C99D6A" stroke="#B8956A" stroke-width="1.5"/>
  <ellipse cx="80" cy="40" rx="5" ry="8" fill="#E8B888"/>
  
  <!-- Left eye -->
  <circle cx="56" cy="48" r="4" fill="#000"/>
  <circle cx="57" cy="47" r="1.5" fill="#fff"/>
  
  <!-- Right eye -->
  <circle cx="72" cy="48" r="4" fill="#000"/>
  <circle cx="73" cy="47" r="1.5" fill="#fff"/>
  
  <!-- Nose -->
  <ellipse cx="64" cy="58" rx="3" ry="2.5" fill="#8B6F47"/>
  
  <!-- Mouth -->
  <path d="M 64 60 Q 60 65 56 63" stroke="#8B6F47" stroke-width="2" fill="none" stroke-linecap="round"/>
  <path d="M 64 60 Q 68 65 72 63" stroke="#8B6F47" stroke-width="2" fill="none" stroke-linecap="round"/>
  
  <!-- Cheek patches -->
  <ellipse cx="42" cy="58" rx="6" ry="5" fill="#E8B888" opacity="0.6"/>
  <ellipse cx="86" cy="58" rx="6" ry="5" fill="#E8B888" opacity="0.6"/>
  
  <!-- Paws (front) -->
  <ellipse cx="50" cy="85" rx="5" ry="8" fill="#C99D6A"/>
  <ellipse cx="78" cy="85" rx="5" ry="8" fill="#C99D6A"/>
  
  <!-- Clipboard in paws -->
  <rect x="58" y="70" width="12" height="16" rx="2" fill="#fff" stroke="#667eea" stroke-width="1.5"/>
  <line x1="61" y1="75" x2="67" y2="75" stroke="#667eea" stroke-width="1"/>
  <line x1="61" y1="78" x2="67" y2="78" stroke="#667eea" stroke-width="1"/>
  <line x1="61" y1="81" x2="65" y2="81" stroke="#667eea" stroke-width="1"/>
  <circle cx="64" cy="72" r="1.5" fill="#667eea"/>
</svg>



